HIERARCHY
ROOT Hips
{
 OFFSET 0.000000 0.000000 0.000000
 CHANNELS 6 Xposition Yposition Zposition Yrotation Xrotation Zrotation
 JOINT Chest
 {
  OFFSET 0.000000 12.778769 -0.025672
  CHANNELS 3 Yrotation Xrotation Zrotation
  JOINT Chest2
  {
   OFFSET 0.000000 9.048585 0.046633
   CHANNELS 3 Yrotation Xrotation Zrotation
   JOINT Chest3
   {
    OFFSET 0.000000 8.173956 0.000000
    CHANNELS 3 Yrotation Xrotation Zrotation
    JOINT Chest4
    {
     OFFSET 0.000000 8.173956 0.000000
     CHANNELS 3 Yrotation Xrotation Zrotation
     JOINT Neck
     {
      OFFSET 0.000000 11.254521 0.000000
      CHANNELS 3 Yrotation Xrotation Zrotation
      JOINT Head
      {
       OFFSET 0.000000 7.627541 0.110895
       CHANNELS 3 Yrotation Xrotation Zrotation
       End Site
       {
        OFFSET 0.000000 14.324091 0.057923
       }
      }
     }
     JOINT RightCollar
     {
      OFFSET -2.416021 6.309018 0.000000
      CHANNELS 3 Yrotation Xrotation Zrotation
      JOINT RightShoulder
      {
       OFFSET -12.309578 0.000000 0.000000
       CHANNELS 3 Yrotation Xrotation Zrotation
       JOINT RightElbow
       {
        OFFSET -26.817880 0.000000 0.000000
        CHANNELS 3 Yrotation Xrotation Zrotation
        JOINT RightWrist
        {
         OFFSET -22.046493 0.000000 0.005727
         CHANNELS 3 Yrotation Xrotation Zrotation
         End Site
         {
          OFFSET -16.516461 0.000000 0.000000
         }
        }
       }
      }
     }
     JOINT LeftCollar
     {
      OFFSET 2.416021 6.309018 0.000000
      CHANNELS 3 Yrotation Xrotation Zrotation
      JOINT LeftShoulder
      {
       OFFSET 12.309578 0.000000 0.000000
       CHANNELS 3 Yrotation Xrotation Zrotation
       JOINT LeftElbow
       {
        OFFSET 26.817880 0.000000 0.000000
        CHANNELS 3 Yrotation Xrotation Zrotation
        JOINT LeftWrist
        {
         OFFSET 22.046493 0.000000 0.005727
         CHANNELS 3 Yrotation Xrotation Zrotation
         End Site
         {
          OFFSET 16.516461 0.000000 0.000000
         }
        }
       }
      }
     }
    }
   }
  }
 }
 JOINT RightHip
 {
  OFFSET -10.582077 0.125794 0.012836
  CHANNELS 3 Yrotation Xrotation Zrotation
  JOINT RightKnee
  {
   OFFSET 0.000000 -43.218284 0.001140
   CHANNELS 3 Yrotation Xrotation Zrotation
   JOINT RightAnkle
   {
    OFFSET 0.000000 -37.342314 0.092095
    CHANNELS 3 Yrotation Xrotation Zrotation
    JOINT RightToe
    {
     OFFSET 0.000000 -11.963287 17.799678
     CHANNELS 3 Yrotation Xrotation Zrotation
     End Site
     {
      OFFSET 0.000000 -1.355498 5.291052
     }
    }
   }
  }
 }
 JOINT LeftHip
 {
  OFFSET 10.582077 0.125794 0.012836
  CHANNELS 3 Yrotation Xrotation Zrotation
  JOINT LeftKnee
  {
   OFFSET 0.000000 -43.218284 0.001140
   CHANNELS 3 Yrotation Xrotation Zrotation
   JOINT LeftAnkle
   {
    OFFSET 0.000000 -37.342314 0.092095
    CHANNELS 3 Yrotation Xrotation Zrotation
    JOINT LeftToe
    {
     OFFSET 0.000000 -11.963287 17.799678
     CHANNELS 3 Yrotation Xrotation Zrotation
     End Site
     {
      OFFSET 0.000000 -1.355498 5.291052
     }
    }
   }
  }
 }
}
MOTION
Frames: 8
Frame Time: 0.016667
0.000000 92.231762 0.000000 0.000000 -5.826342 0.000000 0.000000 11.116423 0.000000 0.000000 -5.290081 0.000000 0.000000 0.000000 0.000000 0.000000 0.000000 0.000000 0.000000 12.665069 0.000000 0.000000 0.575450 0.000000 0.000000 0.000000 0.000000 0.000000 0.000000 0.000000 2.337306 0.000000 0.000000 -2.337306 0.000000 0.000000 0.000000 0.000000 0.000000 0.000000 0.000000 0.000000 -2.337306 0.000000 0.000000 2.337306 0.000000 0.000000 0.000000 8.578828 0.000000 0.000000 1.905768 0.000000 0.000000 -4.658254 0.000000 0.000000 0.000000 0.000000 0.000000 8.578828 0.000000 0.000000 1.905768 0.000000 0.000000 -4.658254 0.000000 0.000000 0.000000 0.000000
-134.808504 25.701399 -214.684997 172.702277 -48.747221 14.453522 4.615894 -3.501265 -2.887148 2.031154 -1.574592 -1.249384 2.031154 -1.574592 -1.249384 1.520058 -1.185117 -0.931757 6.424961 30.509825 3.083415 10.852863 20.426954 4.361877 6.871041 4.003810 20.919014 -51.811270 16.248544 36.341708 -19.570267 21.194399 1.538638 10.657560 -1.639052 2.267455 -1.251402 10.028817 -10.205737 56.855253 -6.806396 -48.839687 16.652626 16.374124 -0.230287 0.208958 5.128438 6.671752 -144.626182 27.356070 -173.298676 -179.112491 -7.882370 -170.078309 -9.786693 5.843324 17.170228 -0.086058 -0.009004 0.145846 168.417408 10.657864 175.553422 146.536943 -8.433122 -178.044811 25.479700 -5.611943 -28.094246 -0.019881 0.006119 0.027068
-134.794250 25.699954 -214.692212 172.720347 -48.776053 14.443627 4.631851 -3.505131 -2.864315 2.040511 -1.574165 -1.240126 2.040511 -1.574165 -1.240126 1.527100 -1.184786 -0.924791 6.436746 30.497816 3.098909 10.870704 20.403909 4.386353 6.833550 4.015259 20.893163 -51.753503 16.354214 36.402582 -19.633120 21.104397 1.544880 10.678547 -1.660586 2.260168 -1.276203 10.040977 -10.220369 56.714072 -6.786032 -48.837758 16.798813 16.270279 -0.241683 0.051278 5.128068 6.580008 -144.664966 27.366153 -173.264330 -179.121920 -7.875813 -170.084210 -9.771757 5.870839 17.188102 -0.080781 0.003849 0.140096 168.380374 10.662609 175.550148 146.519890 -8.431830 -178.036521 25.487443 -5.598562 -28.106038 -0.023989 0.004883 0.024466
-134.783842 25.704774 -214.697905 172.719289 -48.814689 14.442682 4.653389 -3.506634 -2.838308 2.052842 -1.576613 -1.227749 2.052842 -1.576613 -1.227749 1.536373 -1.186605 -0.915469 6.440029 30.492802 3.109280 10.874568 20.394023 4.403745 6.793308 4.010988 20.860142 -51.710922 16.481086 36.433886 -19.695610 21.017275 1.556130 10.705040 -1.688700 2.255069 -1.309250 10.069505 -10.245977 56.553507 -6.715229 -48.847182 16.905197 16.158972 -0.262772 -0.060670 5.082764 6.511813 -144.691276 27.366165 -173.234974 -179.139693 -7.891487 -170.081311 -9.775121 5.848818 17.209777 -0.076955 0.027579 0.133697 168.360251 10.647743 175.530918 146.512172 -8.432817 -178.033207 25.496943 -5.598700 -28.106350 -0.014386 0.013875 0.009426
-134.782281 25.715007 -214.706606 172.704381 -48.856082 14.448965 4.669582 -3.506651 -2.812833 2.063296 -1.577474 -1.216673 2.063296 -1.577474 -1.216673 1.544240 -1.187235 -0.907133 6.438409 30.485732 3.116718 10.870191 20.380434 4.416624 6.758345 4.017792 20.831216 -51.637574 16.609785 36.488536 -19.771287 20.931409 1.561824 10.740570 -1.720566 2.250283 -1.322724 10.103494 -10.266360 56.395018 -6.630732 -48.859394 16.982725 16.056517 -0.279455 -0.157926 5.017249 6.448921 -144.711104 27.367047 -173.211275 -179.163467 -7.924859 -170.072736 -9.788134 5.789345 17.230261 -0.074012 0.056641 0.128319 168.367459 10.614147 175.511005 146.523959 -8.419644 -178.031171 25.465841 -5.569265 -28.144341 -0.018930 0.006914 0.008247
-134.772078 25.730670 -214.711626 172.692428 -48.908487 14.450625 4.665477 -3.497558 -2.798673 2.064253 -1.575187 -1.210120 2.064253 -1.575187 -1.210120 1.544980 -1.185499 -0.902223 6.439751 30.475941 3.125998 10.870663 20.361736 4.432049 6.757006 4.032152 20.824211 -51.533211 16.726039 36.574373 -19.859112 20.886841 1.576718 10.770104 -1.780278 2.224988 -1.307020 10.132004 -10.264782 56.259093 -6.552154 -48.873215 17.037917 15.931280 -0.283798 -0.258325 4.975865 6.374629 -144.739381 27.364218 -173.188560 -179.187362 -7.986471 -170.055832 -9.803912 5.681429 17.256622 -0.071153 0.090741 0.121859 168.381263 10.563295 175.487351 146.561265 -8.394759 -178.035971 25.522001 -5.599646 -28.082256 0.022857 0.041255 -0.036878
-134.757610 25.748016 -214.717414 172.701115 -48.962101 14.439376 4.639274 -3.487905 -2.798593 2.052101 -1.572620 -1.210244 2.052101 -1.572620 -1.210244 1.535872 -1.183550 -0.902357 6.444693 30.464082 3.134615 10.877568 20.339295 4.445533 6.800330 4.029041 20.843899 -51.420945 16.831526 36.670451 -19.969419 20.883136 1.584101 10.790180 -1.856148 2.206316 -1.258302 10.135715 -10.235354 56.137107 -6.473154 -48.878151 17.100951 15.812089 -0.278237 -0.346092 4.935926 6.304942 -144.789623 27.362558 -173.172510 -179.212212 -8.062354 -170.037863 -9.813823 5.549040 17.283438 -0.067402 0.117354 0.112895 168.393132 10.523185 175.464424 146.620342 -8.366254 -178.041928 25.499547 -5.551290 -28.122948 0.012432 0.029366 -0.024699
-134.733070 25.761524 -214.714406 172.739457 -49.003668 14.413394 4.604534 -3.485296 -2.806081 2.032670 -1.573060 -1.213575 2.032670 -1.573060 -1.213575 1.521290 -1.183852 -0.904903 6.435952 30.451151 3.136499 10.861365 20.315091 4.449355 6.859143 4.004461 20.868207 -51.335802 16.914344 36.743239 -20.091112 20.892486 1.581463 10.798363 -1.915641 2.206232 -1.210060 10.118040 -10.203013 56.019003 -6.376787 -48.872741 17.162326 15.690988 -0.277891 -0.395688 4.892622 6.257736 -144.864501 27.367075 -173.171130 -179.233801 -8.132162 -170.030085 -9.811158 5.427717 17.297713 -0.062984 0.125059 0.101915 168.400544 10.514417 175.454203 146.677573 -8.337739 -178.044244 25.495852 -5.535024 -28.115331 0.025881 0.038435 -0.028928
